<svg width="3267" height="640" viewBox="0 0 3267 640" fill="none" xmlns="http://www.w3.org/2000/svg">
<rect width="3267" height="640" fill="#E5E5E5"/>
<g clip-path="url(#clip0)">
<rect width="3267" height="640" fill="white"/>
<rect x="289" y="109" width="280.585" height="384" rx="63" fill="white" stroke="black" stroke-width="40"/>
<circle cx="429.293" cy="301" r="45.06" fill="#14DFDA" stroke="black" stroke-width="30"/>
<path d="M883.36 142.12H755.26V88.44H1065.14V142.12H937.04V513H883.36V142.12ZM1264.05 520.32C1217.69 520.32 1181.49 505.273 1155.47 475.18C1129.44 444.68 1116.43 404.217 1116.43 353.79C1116.43 303.363 1129.44 263.103 1155.47 233.01C1181.49 202.51 1217.69 187.26 1264.05 187.26C1310.41 187.26 1346.6 202.51 1372.63 233.01C1398.65 263.103 1411.67 303.363 1411.67 353.79C1411.67 404.217 1398.65 444.68 1372.63 475.18C1346.6 505.273 1310.41 520.32 1264.05 520.32ZM1264.05 473.96C1293.73 473.96 1316.1 462.98 1331.15 441.02C1346.19 419.06 1353.72 389.983 1353.72 353.79C1353.72 317.597 1346.19 288.52 1331.15 266.56C1316.1 244.6 1293.73 233.62 1264.05 233.62C1234.36 233.62 1211.99 244.6 1196.95 266.56C1182.31 288.52 1174.99 317.597 1174.99 353.79C1174.99 389.983 1182.31 419.06 1196.95 441.02C1211.99 462.98 1234.36 473.96 1264.05 473.96ZM1714.3 513L1613.65 381.24L1516.05 513H1456.88L1584.98 344.64L1470.3 194.58H1534.96L1622.19 308.65L1706.37 194.58H1765.54L1650.86 345.86L1778.96 513H1714.3ZM2101.39 292.18C2142.05 309.667 2162.39 343.623 2162.39 394.05C2162.39 435.123 2149.37 465.217 2123.35 484.33C2097.32 503.443 2060.72 513 2013.55 513H1864.71V88.44H2017.82C2059.3 88.44 2091.42 97.59 2114.2 115.89C2136.97 134.19 2148.36 162.047 2148.36 199.46C2148.36 242.16 2132.7 273.067 2101.39 292.18ZM1918.39 139.68V270.83H2011.11C2039.17 270.83 2059.3 265.747 2071.5 255.58C2084.1 245.413 2090.41 227.52 2090.41 201.9C2090.41 178.313 2084.1 162.047 2071.5 153.1C2059.3 144.153 2039.17 139.68 2011.11 139.68H1918.39ZM2013.55 461.76C2045.67 461.76 2068.85 456.88 2083.09 447.12C2097.32 437.36 2104.44 418.857 2104.44 391.61C2104.44 364.363 2097.12 345.86 2082.48 336.1C2068.24 326.34 2044.86 321.46 2012.33 321.46H1918.39V461.76H2013.55ZM2410.78 520.32C2364.42 520.32 2328.22 505.273 2302.2 475.18C2276.17 444.68 2263.16 404.217 2263.16 353.79C2263.16 303.363 2276.17 263.103 2302.2 233.01C2328.22 202.51 2364.42 187.26 2410.78 187.26C2457.14 187.26 2493.33 202.51 2519.36 233.01C2545.38 263.103 2558.4 303.363 2558.4 353.79C2558.4 404.217 2545.38 444.68 2519.36 475.18C2493.33 505.273 2457.14 520.32 2410.78 520.32ZM2410.78 473.96C2440.46 473.96 2462.83 462.98 2477.88 441.02C2492.92 419.06 2500.45 389.983 2500.45 353.79C2500.45 317.597 2492.92 288.52 2477.88 266.56C2462.83 244.6 2440.46 233.62 2410.78 233.62C2381.09 233.62 2358.72 244.6 2343.68 266.56C2329.04 288.52 2321.72 317.597 2321.72 353.79C2321.72 389.983 2329.04 419.06 2343.68 441.02C2358.72 462.98 2381.09 473.96 2410.78 473.96ZM2861.03 513L2760.38 381.24L2662.78 513H2603.61L2731.71 344.64L2617.03 194.58H2681.69L2768.92 308.65L2853.1 194.58H2912.27L2797.59 345.86L2925.69 513H2861.03Z" fill="#14DFDA"/>
</g>
<defs>
<clipPath id="clip0">
<rect width="3267" height="640" fill="white"/>
</clipPath>
</defs>
</svg>
