<svg width="3267" height="640" viewBox="0 0 3267 640" fill="none" xmlns="http://www.w3.org/2000/svg">
<rect width="3267" height="640" fill="#E5E5E5"/>
<g clip-path="url(#clip0)">
<rect width="3267" height="640" fill="white"/>
<path d="M400.5 169.355L613.975 539.105H187.025L400.5 169.355Z" fill="url(#paint0_linear)"/>
<rect x="154" y="111" width="493" height="58.3551" fill="#2F8CE2"/>
<path d="M926.05 111H1106C1151.14 111 1191.2 119.947 1226.17 137.84C1261.14 155.733 1288.19 180.947 1307.3 213.48C1326.82 245.607 1336.58 282.613 1336.58 324.5C1336.58 366.387 1326.82 403.597 1307.3 436.13C1288.19 468.257 1261.14 493.267 1226.17 511.16C1191.2 529.053 1151.14 538 1106 538H926.05V111ZM1102.34 484.93C1136.91 484.93 1167.2 478.22 1193.23 464.8C1219.66 451.38 1240 432.673 1254.23 408.68C1268.46 384.28 1275.58 356.22 1275.58 324.5C1275.58 292.78 1268.46 264.923 1254.23 240.93C1240 216.53 1219.66 197.62 1193.23 184.2C1167.2 170.78 1136.91 164.07 1102.34 164.07H987.05V484.93H1102.34ZM1713.66 378.18C1713.66 382.653 1713.26 388.55 1712.44 395.87H1450.14C1453.8 424.337 1466.21 447.313 1487.35 464.8C1508.91 481.88 1535.54 490.42 1567.26 490.42C1605.9 490.42 1637.01 477.407 1660.59 451.38L1692.92 489.2C1678.28 506.28 1659.98 519.293 1638.02 528.24C1616.47 537.187 1592.27 541.66 1565.43 541.66C1531.27 541.66 1500.98 534.747 1474.54 520.92C1448.11 506.687 1427.57 486.963 1412.93 461.75C1398.7 436.537 1391.58 408.07 1391.58 376.35C1391.58 345.037 1398.5 316.773 1412.32 291.56C1426.56 266.347 1445.87 246.827 1470.27 233C1495.08 218.767 1522.94 211.65 1553.84 211.65C1584.75 211.65 1612.2 218.767 1636.19 233C1660.59 246.827 1679.5 266.347 1692.92 291.56C1706.75 316.773 1713.66 345.647 1713.66 378.18ZM1553.84 261.06C1525.78 261.06 1502.2 269.6 1483.08 286.68C1464.38 303.76 1453.4 326.127 1450.14 353.78H1657.54C1654.29 326.533 1643.11 304.37 1623.99 287.29C1605.29 269.803 1581.9 261.06 1553.84 261.06ZM1794.98 85.38H1853.54V538H1794.98V85.38ZM2154.88 519.09C2146.34 526.41 2135.76 532.103 2123.16 536.17C2110.55 539.83 2097.54 541.66 2084.12 541.66C2051.58 541.66 2026.37 532.917 2008.48 515.43C1990.58 497.943 1981.64 472.933 1981.64 440.4V262.89H1926.74V214.7H1981.64V143.94H2040.2V214.7H2132.92V262.89H2040.2V437.96C2040.2 455.447 2044.47 468.867 2053.01 478.22C2061.95 487.573 2074.56 492.25 2090.83 492.25C2108.72 492.25 2123.97 487.167 2136.58 477L2154.88 519.09ZM2343.4 211.65C2388.14 211.65 2422.3 222.63 2445.88 244.59C2469.88 266.55 2481.87 299.287 2481.87 342.8V538H2426.36V495.3C2416.6 510.347 2402.57 521.937 2384.27 530.07C2366.38 537.797 2345.03 541.66 2320.22 541.66C2284.03 541.66 2254.95 532.917 2232.99 515.43C2211.44 497.943 2200.66 474.967 2200.66 446.5C2200.66 418.033 2211.03 395.26 2231.77 378.18C2252.51 360.693 2285.45 351.95 2330.59 351.95H2423.31V340.36C2423.31 315.147 2415.99 295.83 2401.35 282.41C2386.71 268.99 2365.16 262.28 2336.69 262.28C2317.58 262.28 2298.87 265.533 2280.57 272.04C2262.27 278.14 2246.82 286.477 2234.21 297.05L2209.81 253.13C2226.49 239.71 2246.41 229.543 2269.59 222.63C2292.77 215.31 2317.38 211.65 2343.4 211.65ZM2329.98 496.52C2352.35 496.52 2371.67 491.64 2387.93 481.88C2404.2 471.713 2415.99 457.48 2423.31 439.18V394.04H2333.03C2283.42 394.04 2258.61 410.713 2258.61 444.06C2258.61 460.327 2264.92 473.137 2277.52 482.49C2290.13 491.843 2307.62 496.52 2329.98 496.52ZM2894.25 164.07H2748.46L2758.83 111H3112.02L3101.04 164.07H2955.25L2880.22 538H2819.83L2894.25 164.07Z" fill="#2F8CE2"/>
</g>
<defs>
<linearGradient id="paint0_linear" x1="400.5" y1="169.355" x2="400.5" y2="662.355" gradientUnits="userSpaceOnUse">
<stop stop-color="#2F8CE2"/>
<stop offset="0.9999" stop-color="#FF0000" stop-opacity="0.0208333"/>
<stop offset="1" stop-color="#2F8CE2" stop-opacity="0"/>
</linearGradient>
<clipPath id="clip0">
<rect width="3267" height="640" fill="white"/>
</clipPath>
</defs>
</svg>
